<?xml version="1.0" encoding="UTF-8" standalone="no"?>
<!DOCTYPE svg PUBLIC "-//W3C//DTD SVG 1.1//EN"
 "http://www.w3.org/Graphics/SVG/1.1/DTD/svg11.dtd">
<!-- Generated by graphviz version 2.47.0 (20210316.0004)
 -->
<!-- Title: dependencies Pages: 1 -->
<svg width="2347pt" height="211pt"
 viewBox="0.00 0.00 2347.00 211.00" xmlns="http://www.w3.org/2000/svg" xmlns:xlink="http://www.w3.org/1999/xlink">
<g id="graph0" class="graph" transform="scale(1 1) rotate(0) translate(4 207)">
<title>dependencies</title>
<polygon fill="white" stroke="transparent" points="-4,4 -4,-207 2343,-207 2343,4 -4,4"/>
<text text-anchor="start" x="1148.51" y="-42.4" font-family="Times-12" font-weight="bold" font-size="14.00">Legend</text>
<polygon fill="#ffffb3" stroke="transparent" points="935.5,-10 935.5,-30 955.5,-30 955.5,-10 935.5,-10"/>
<text text-anchor="start" x="959.13" y="-15.4" font-family="Times-12" font-size="14.00"> &#160;Declarations</text>
<polygon fill="#8dd3c7" stroke="transparent" points="1048.5,-10 1048.5,-30 1068.5,-30 1068.5,-10 1048.5,-10"/>
<text text-anchor="start" x="1072.23" y="-15.4" font-family="Times-12" font-size="14.00"> &#160;Module</text>
<polygon fill="#80b1d3" stroke="transparent" points="1134.5,-10 1134.5,-30 1154.5,-30 1154.5,-10 1134.5,-10"/>
<text text-anchor="start" x="1158.28" y="-15.4" font-family="Times-12" font-size="14.00"> &#160;Bootstrap</text>
<polygon fill="#fdb462" stroke="transparent" points="1231.5,-10 1231.5,-30 1251.5,-30 1251.5,-10 1231.5,-10"/>
<text text-anchor="start" x="1255.17" y="-15.4" font-family="Times-12" font-size="14.00"> &#160;Providers</text>
<polygon fill="#fb8072" stroke="transparent" points="1327.5,-10 1327.5,-30 1347.5,-30 1347.5,-10 1327.5,-10"/>
<text text-anchor="start" x="1351.23" y="-15.4" font-family="Times-12" font-size="14.00"> &#160;Exports</text>
<g id="clust1" class="cluster">
<title>cluster_UserModule</title>
<polygon fill="none" stroke="black" stroke-dasharray="1,5" points="8,-70 8,-195 2331,-195 2331,-70 8,-70"/>
</g>
<g id="clust14" class="cluster">
<title>cluster_UserModule_imports</title>
<polygon fill="none" stroke="black" points="1725,-78 1725,-130 2323,-130 2323,-78 1725,-78"/>
</g>
<g id="clust2" class="cluster">
<title>cluster_UserModule_declarations</title>
<polygon fill="none" stroke="black" points="16,-78 16,-130 1717,-130 1717,-78 16,-78"/>
</g>
<!-- CarListComponent -->
<g id="node1" class="node">
<title>CarListComponent</title>
<polygon fill="#ffffb3" stroke="black" points="1708.82,-122 1585.18,-122 1585.18,-86 1708.82,-86 1708.82,-122"/>
<text text-anchor="middle" x="1647" y="-99.8" font-family="Times,serif" font-size="14.00">CarListComponent</text>
</g>
<!-- UserModule -->
<g id="node12" class="node">
<title>UserModule</title>
<polygon fill="#8dd3c7" stroke="black" points="1253.98,-187 1250.98,-191 1229.98,-191 1226.98,-187 1168.02,-187 1168.02,-151 1253.98,-151 1253.98,-187"/>
<text text-anchor="middle" x="1211" y="-164.8" font-family="Times,serif" font-size="14.00">UserModule</text>
</g>
<!-- CarListComponent&#45;&gt;UserModule -->
<g id="edge1" class="edge">
<title>CarListComponent&#45;&gt;UserModule</title>
<path fill="none" stroke="black" d="M1647,-122.03C1647,-138.4 1647,-160 1647,-160 1647,-160 1264,-160 1264,-160"/>
<polygon fill="black" stroke="black" points="1264,-156.5 1254,-160 1264,-163.5 1264,-156.5"/>
</g>
<!-- CarManageComponent -->
<g id="node2" class="node">
<title>CarManageComponent</title>
<polygon fill="#ffffb3" stroke="black" points="1567.13,-122 1420.87,-122 1420.87,-86 1567.13,-86 1567.13,-122"/>
<text text-anchor="middle" x="1494" y="-99.8" font-family="Times,serif" font-size="14.00">CarManageComponent</text>
</g>
<!-- CarManageComponent&#45;&gt;UserModule -->
<g id="edge2" class="edge">
<title>CarManageComponent&#45;&gt;UserModule</title>
<path fill="none" stroke="black" d="M1494,-122.19C1494,-137.18 1494,-156 1494,-156 1494,-156 1263.98,-156 1263.98,-156"/>
<polygon fill="black" stroke="black" points="1263.98,-152.5 1253.98,-156 1263.98,-159.5 1263.98,-152.5"/>
</g>
<!-- FavouriteVehicleComponent -->
<g id="node3" class="node">
<title>FavouriteVehicleComponent</title>
<polygon fill="#ffffb3" stroke="black" points="1402.02,-122 1223.98,-122 1223.98,-86 1402.02,-86 1402.02,-122"/>
<text text-anchor="middle" x="1313" y="-99.8" font-family="Times,serif" font-size="14.00">FavouriteVehicleComponent</text>
</g>
<!-- FavouriteVehicleComponent&#45;&gt;UserModule -->
<g id="edge3" class="edge">
<title>FavouriteVehicleComponent&#45;&gt;UserModule</title>
<path fill="none" stroke="black" d="M1238.86,-122.11C1238.86,-122.11 1238.86,-140.99 1238.86,-140.99"/>
<polygon fill="black" stroke="black" points="1235.36,-140.99 1238.86,-150.99 1242.36,-140.99 1235.36,-140.99"/>
</g>
<!-- FinanceApplicationComponent -->
<g id="node4" class="node">
<title>FinanceApplicationComponent</title>
<polygon fill="#ffffb3" stroke="black" points="1205.75,-122 1014.25,-122 1014.25,-86 1205.75,-86 1205.75,-122"/>
<text text-anchor="middle" x="1110" y="-99.8" font-family="Times,serif" font-size="14.00">FinanceApplicationComponent</text>
</g>
<!-- FinanceApplicationComponent&#45;&gt;UserModule -->
<g id="edge4" class="edge">
<title>FinanceApplicationComponent&#45;&gt;UserModule</title>
<path fill="none" stroke="black" d="M1186.94,-122.11C1186.94,-122.11 1186.94,-140.99 1186.94,-140.99"/>
<polygon fill="black" stroke="black" points="1183.44,-140.99 1186.94,-150.99 1190.44,-140.99 1183.44,-140.99"/>
</g>
<!-- HomeComponent -->
<g id="node5" class="node">
<title>HomeComponent</title>
<polygon fill="#ffffb3" stroke="black" points="995.55,-122 880.45,-122 880.45,-86 995.55,-86 995.55,-122"/>
<text text-anchor="middle" x="938" y="-99.8" font-family="Times,serif" font-size="14.00">HomeComponent</text>
</g>
<!-- HomeComponent&#45;&gt;UserModule -->
<g id="edge5" class="edge">
<title>HomeComponent&#45;&gt;UserModule</title>
<path fill="none" stroke="black" d="M938,-122.19C938,-137.18 938,-156 938,-156 938,-156 1157.74,-156 1157.74,-156"/>
<polygon fill="black" stroke="black" points="1157.74,-159.5 1167.74,-156 1157.74,-152.5 1157.74,-159.5"/>
</g>
<!-- InquiryComponent -->
<g id="node6" class="node">
<title>InquiryComponent</title>
<polygon fill="#ffffb3" stroke="black" points="862.05,-122 739.95,-122 739.95,-86 862.05,-86 862.05,-122"/>
<text text-anchor="middle" x="801" y="-99.8" font-family="Times,serif" font-size="14.00">InquiryComponent</text>
</g>
<!-- InquiryComponent&#45;&gt;UserModule -->
<g id="edge6" class="edge">
<title>InquiryComponent&#45;&gt;UserModule</title>
<path fill="none" stroke="black" d="M801,-122.03C801,-138.4 801,-160 801,-160 801,-160 1157.9,-160 1157.9,-160"/>
<polygon fill="black" stroke="black" points="1157.9,-163.5 1167.9,-160 1157.9,-156.5 1157.9,-163.5"/>
</g>
<!-- PriceAlertComponent -->
<g id="node7" class="node">
<title>PriceAlertComponent</title>
<polygon fill="#ffffb3" stroke="black" points="721.36,-122 582.64,-122 582.64,-86 721.36,-86 721.36,-122"/>
<text text-anchor="middle" x="652" y="-99.8" font-family="Times,serif" font-size="14.00">PriceAlertComponent</text>
</g>
<!-- PriceAlertComponent&#45;&gt;UserModule -->
<g id="edge7" class="edge">
<title>PriceAlertComponent&#45;&gt;UserModule</title>
<path fill="none" stroke="black" d="M652,-122.3C652,-140.27 652,-165 652,-165 652,-165 1157.6,-165 1157.6,-165"/>
<polygon fill="black" stroke="black" points="1157.6,-168.5 1167.6,-165 1157.6,-161.5 1157.6,-168.5"/>
</g>
<!-- ProfileComponent -->
<g id="node8" class="node">
<title>ProfileComponent</title>
<polygon fill="#ffffb3" stroke="black" points="564.93,-122 445.07,-122 445.07,-86 564.93,-86 564.93,-122"/>
<text text-anchor="middle" x="505" y="-99.8" font-family="Times,serif" font-size="14.00">ProfileComponent</text>
</g>
<!-- ProfileComponent&#45;&gt;UserModule -->
<g id="edge8" class="edge">
<title>ProfileComponent&#45;&gt;UserModule</title>
<path fill="none" stroke="black" d="M505,-122.11C505,-141.34 505,-169 505,-169 505,-169 1157.9,-169 1157.9,-169"/>
<polygon fill="black" stroke="black" points="1157.9,-172.5 1167.9,-169 1157.9,-165.5 1157.9,-172.5"/>
</g>
<!-- SearchAlertComponent -->
<g id="node9" class="node">
<title>SearchAlertComponent</title>
<polygon fill="#ffffb3" stroke="black" points="427.18,-122 278.82,-122 278.82,-86 427.18,-86 427.18,-122"/>
<text text-anchor="middle" x="353" y="-99.8" font-family="Times,serif" font-size="14.00">SearchAlertComponent</text>
</g>
<!-- SearchAlertComponent&#45;&gt;UserModule -->
<g id="edge9" class="edge">
<title>SearchAlertComponent&#45;&gt;UserModule</title>
<path fill="none" stroke="black" d="M353,-122.03C353,-142.77 353,-174 353,-174 353,-174 1157.86,-174 1157.86,-174"/>
<polygon fill="black" stroke="black" points="1157.86,-177.5 1167.86,-174 1157.86,-170.5 1157.86,-177.5"/>
</g>
<!-- StoreComponent -->
<g id="node10" class="node">
<title>StoreComponent</title>
<polygon fill="#ffffb3" stroke="black" points="260.38,-122 149.62,-122 149.62,-86 260.38,-86 260.38,-122"/>
<text text-anchor="middle" x="205" y="-99.8" font-family="Times,serif" font-size="14.00">StoreComponent</text>
</g>
<!-- StoreComponent&#45;&gt;UserModule -->
<g id="edge10" class="edge">
<title>StoreComponent&#45;&gt;UserModule</title>
<path fill="none" stroke="black" d="M205,-122.29C205,-144.21 205,-178 205,-178 205,-178 1157.77,-178 1157.77,-178"/>
<polygon fill="black" stroke="black" points="1157.77,-181.5 1167.77,-178 1157.77,-174.5 1157.77,-181.5"/>
</g>
<!-- UserComponent -->
<g id="node11" class="node">
<title>UserComponent</title>
<polygon fill="#ffffb3" stroke="black" points="131.76,-122 24.24,-122 24.24,-86 131.76,-86 131.76,-122"/>
<text text-anchor="middle" x="78" y="-99.8" font-family="Times,serif" font-size="14.00">UserComponent</text>
</g>
<!-- UserComponent&#45;&gt;UserModule -->
<g id="edge11" class="edge">
<title>UserComponent&#45;&gt;UserModule</title>
<path fill="none" stroke="black" d="M78,-122.32C78,-145.66 78,-183 78,-183 78,-183 1157.97,-183 1157.97,-183"/>
<polygon fill="black" stroke="black" points="1157.97,-186.5 1167.97,-183 1157.97,-179.5 1157.97,-186.5"/>
</g>
<!-- GoogleMap -->
<g id="node13" class="node">
<title>GoogleMap</title>
<polygon fill="#8dd3c7" stroke="black" points="2315.37,-122 2312.37,-126 2291.37,-126 2288.37,-122 2232.63,-122 2232.63,-86 2315.37,-86 2315.37,-122"/>
<text text-anchor="middle" x="2274" y="-99.8" font-family="Times,serif" font-size="14.00">GoogleMap</text>
</g>
<!-- GoogleMap&#45;&gt;UserModule -->
<g id="edge12" class="edge">
<title>GoogleMap&#45;&gt;UserModule</title>
<path fill="none" stroke="black" d="M2274,-122.32C2274,-145.66 2274,-183 2274,-183 2274,-183 1263.99,-183 1263.99,-183"/>
<polygon fill="black" stroke="black" points="1263.99,-179.5 1253.99,-183 1263.99,-186.5 1263.99,-179.5"/>
</g>
<!-- LoaderComponent -->
<g id="node14" class="node">
<title>LoaderComponent</title>
<polygon fill="#8dd3c7" stroke="black" points="2214.47,-122 2211.47,-126 2190.47,-126 2187.47,-122 2093.53,-122 2093.53,-86 2214.47,-86 2214.47,-122"/>
<text text-anchor="middle" x="2154" y="-99.8" font-family="Times,serif" font-size="14.00">LoaderComponent</text>
</g>
<!-- LoaderComponent&#45;&gt;UserModule -->
<g id="edge13" class="edge">
<title>LoaderComponent&#45;&gt;UserModule</title>
<path fill="none" stroke="black" d="M2154,-122.29C2154,-144.21 2154,-178 2154,-178 2154,-178 1264.28,-178 1264.28,-178"/>
<polygon fill="black" stroke="black" points="1264.28,-174.5 1254.28,-178 1264.28,-181.5 1264.28,-174.5"/>
</g>
<!-- MapMarker -->
<g id="node15" class="node">
<title>MapMarker</title>
<polygon fill="#8dd3c7" stroke="black" points="2075.35,-122 2072.35,-126 2051.35,-126 2048.35,-122 1992.65,-122 1992.65,-86 2075.35,-86 2075.35,-122"/>
<text text-anchor="middle" x="2034" y="-99.8" font-family="Times,serif" font-size="14.00">MapMarker</text>
</g>
<!-- MapMarker&#45;&gt;UserModule -->
<g id="edge14" class="edge">
<title>MapMarker&#45;&gt;UserModule</title>
<path fill="none" stroke="black" d="M2034,-122.03C2034,-142.77 2034,-174 2034,-174 2034,-174 1264.09,-174 1264.09,-174"/>
<polygon fill="black" stroke="black" points="1264.09,-170.5 1254.09,-174 1264.09,-177.5 1264.09,-170.5"/>
</g>
<!-- UserRoutingModule -->
<g id="node16" class="node">
<title>UserRoutingModule</title>
<polygon fill="#8dd3c7" stroke="black" points="1974.59,-122 1971.59,-126 1950.59,-126 1947.59,-122 1843.41,-122 1843.41,-86 1974.59,-86 1974.59,-122"/>
<text text-anchor="middle" x="1909" y="-99.8" font-family="Times,serif" font-size="14.00">UserRoutingModule</text>
</g>
<!-- UserRoutingModule&#45;&gt;UserModule -->
<g id="edge15" class="edge">
<title>UserRoutingModule&#45;&gt;UserModule</title>
<path fill="none" stroke="black" d="M1909,-122.11C1909,-141.34 1909,-169 1909,-169 1909,-169 1264.14,-169 1264.14,-169"/>
<polygon fill="black" stroke="black" points="1264.14,-165.5 1254.14,-169 1264.14,-172.5 1264.14,-165.5"/>
</g>
<!-- cdkDragDrop -->
<g id="node17" class="node">
<title>cdkDragDrop</title>
<polygon fill="#8dd3c7" stroke="black" points="1825.46,-122 1822.46,-126 1801.46,-126 1798.46,-122 1732.54,-122 1732.54,-86 1825.46,-86 1825.46,-122"/>
<text text-anchor="middle" x="1779" y="-99.8" font-family="Times,serif" font-size="14.00">cdkDragDrop</text>
</g>
<!-- cdkDragDrop&#45;&gt;UserModule -->
<g id="edge16" class="edge">
<title>cdkDragDrop&#45;&gt;UserModule</title>
<path fill="none" stroke="black" d="M1779,-122.3C1779,-140.27 1779,-165 1779,-165 1779,-165 1264.16,-165 1264.16,-165"/>
<polygon fill="black" stroke="black" points="1264.16,-161.5 1254.16,-165 1264.16,-168.5 1264.16,-161.5"/>
</g>
</g>
</svg>
